# xmcd
#
# Track frame offsets: 
#        150
#        20560
#        41107
#        61431
#        75457
#        115944
#        133678
#        162002
#        182647
#        210024
#        231447
#        246824
#        265420
#        284957
#        301422
#
# Disc length: 4174 seconds
#
# Revision: 0
# Processed by: cddbd v1.4PL0 Copyright (c) Steve Scherf et al.
# Submitted via: ExactAudioCopy v0.90b4
#
DISCID=d5104c0f
DTITLE=Various Artist - Blues Planet - The Best Of Blues Music
DYEAR=1900
DGENRE=Blues
TTITLE0=Buddy Guy/She's Out There Somewhere
TTITLE1=Billy Boy Arnold/Whiskey, Beer and Refeer
TTITLE2=Otis Rush/ You Got Me Running
TTITLE3=Walter "Shakey" Horton/Big Walter's Boogie
TTITLE4=Jimmy Dawkins/Going Down
TTITLE5=Pinetop Perkins/Hi-Heel Sneakers
TTITLE6=Byther Smith/Play The Blues In Paris
TTITLE7=Luther Allison/Nobody But You
TTITLE8=Son Seals/Now That I'm Down
TTITLE9=Koko Taylor/Mother Nature
TTITLE10=B.B. King/Summer In The City
TTITLE11=John Lee Hooker/Don't Look Back
TTITLE12=John Mayall/Stone Cold Deal
TTITLE13=Peter Green/You Won't See Me Anymore
TTITLE14=Cotton, Wells, Bell, Branch/Hit Man
EXTD=
EXTT0=
EXTT1=
EXTT2=
EXTT3=
EXTT4=
EXTT5=
EXTT6=
EXTT7=
EXTT8=
EXTT9=
EXTT10=
EXTT11=
EXTT12=
EXTT13=
EXTT14=
PLAYORDER=
